REM DIRINDEX 1\2,1\3
REM DIRNAME cjc039,folder01,folder02
TITLE ""
FILE "2301-2320.mp3" MP3
  TRACK 01 AUDIO
    TITLE "0:"
    INDEX 01 00:00:00
  TRACK 02 AUDIO
    TITLE "2:cjc039_3601"
    INDEX 01 00:00:23
  TRACK 03 AUDIO
    TITLE "0:"
    INDEX 01 00:01:32
  TRACK 04 AUDIO
    TITLE "3:cjc039_3602"
    INDEX 01 00:02:10
  TRACK 05 AUDIO
    TITLE "0:"
    INDEX 01 00:05:44
  TRACK 06 AUDIO
    TITLE "2:cjc039_3603"
    INDEX 01 00:07:17
  TRACK 07 AUDIO
    TITLE "0:"
    INDEX 01 00:08:26
  TRACK 08 AUDIO
    TITLE "3:cjc039_3604"
    INDEX 01 00:09:02
  TRACK 09 AUDIO
    TITLE "0:"
    INDEX 01 00:12:01
  TRACK 10 AUDIO
    TITLE "2:cjc039_3605"
    INDEX 01 00:13:53
  TRACK 11 AUDIO
    TITLE "0:"
    INDEX 01 00:14:72
  TRACK 12 AUDIO
    TITLE "3:cjc039_3606"
    INDEX 01 00:15:50
  TRACK 13 AUDIO
    TITLE "0:"
    INDEX 01 00:19:30
  TRACK 14 AUDIO
    TITLE "2:cjc039_3607"
    INDEX 01 00:21:04
  TRACK 15 AUDIO
    TITLE "0:"
    INDEX 01 00:22:23
  TRACK 16 AUDIO
    TITLE "3:cjc039_3608"
    INDEX 01 00:22:72
  TRACK 17 AUDIO
    TITLE "0:"
    INDEX 01 00:26:66
  TRACK 18 AUDIO
    TITLE "2:cjc039_3609"
    INDEX 01 00:28:33
  TRACK 19 AUDIO
    TITLE "0:"
    INDEX 01 00:29:38
  TRACK 20 AUDIO
    TITLE "3:cjc039_3610"
    INDEX 01 00:30:14
  TRACK 21 AUDIO
    TITLE "0:"
    INDEX 01 00:33:46
  TRACK 22 AUDIO
    TITLE "2:cjc039_3611"
    INDEX 01 00:35:17
  TRACK 23 AUDIO
    TITLE "0:"
    INDEX 01 00:36:35
  TRACK 24 AUDIO
    TITLE "3:cjc039_3612"
    INDEX 01 00:37:14
  TRACK 25 AUDIO
    TITLE "0:"
    INDEX 01 00:40:32
  TRACK 26 AUDIO
    TITLE "2:cjc039_3613"
    INDEX 01 00:42:14
  TRACK 27 AUDIO
    TITLE "0:"
    INDEX 01 00:43:11
  TRACK 28 AUDIO
    TITLE "3:cjc039_3614"
    INDEX 01 00:43:64
  TRACK 29 AUDIO
    TITLE "0:"
    INDEX 01 00:46:27
  TRACK 30 AUDIO
    TITLE "2:cjc039_3615"
    INDEX 01 00:48:00
  TRACK 31 AUDIO
    TITLE "0:"
    INDEX 01 00:49:41
  TRACK 32 AUDIO
    TITLE "3:cjc039_3616"
    INDEX 01 00:50:13
  TRACK 33 AUDIO
    TITLE "0:"
    INDEX 01 00:53:45
  TRACK 34 AUDIO
    TITLE "2:cjc039_3617"
    INDEX 01 00:55:22
  TRACK 35 AUDIO
    TITLE "0:"
    INDEX 01 00:56:31
  TRACK 36 AUDIO
    TITLE "3:cjc039_3618"
    INDEX 01 00:57:11
  TRACK 37 AUDIO
    TITLE "0:"
    INDEX 01 01:00:39
  TRACK 38 AUDIO
    TITLE "2:cjc039_3619"
    INDEX 01 01:02:12
  TRACK 39 AUDIO
    TITLE "0:"
    INDEX 01 01:03:53
  TRACK 40 AUDIO
    TITLE "3:cjc039_3620"
    INDEX 01 01:04:27
  TRACK 41 AUDIO
    TITLE "0:"
    INDEX 01 01:08:50
  TRACK 42 AUDIO
    TITLE "2:cjc039_3621"
    INDEX 01 01:10:24
  TRACK 43 AUDIO
    TITLE "0:"
    INDEX 01 01:11:21
  TRACK 44 AUDIO
    TITLE "3:cjc039_3622"
    INDEX 01 01:11:72
  TRACK 45 AUDIO
    TITLE "0:"
    INDEX 01 01:15:44
  TRACK 46 AUDIO
    TITLE "2:cjc039_3623"
    INDEX 01 01:17:18
  TRACK 47 AUDIO
    TITLE "0:"
    INDEX 01 01:18:33
  TRACK 48 AUDIO
    TITLE "3:cjc039_3624"
    INDEX 01 01:19:13
  TRACK 49 AUDIO
    TITLE "0:"
    INDEX 01 01:22:46
  TRACK 50 AUDIO
    TITLE "2:cjc039_3625"
    INDEX 01 01:24:24
  TRACK 51 AUDIO
    TITLE "0:"
    INDEX 01 01:25:17
  TRACK 52 AUDIO
    TITLE "3:cjc039_3626"
    INDEX 01 01:26:01
  TRACK 53 AUDIO
    TITLE "0:"
    INDEX 01 01:29:09
  TRACK 54 AUDIO
    TITLE "2:cjc039_3627"
    INDEX 01 01:30:62
  TRACK 55 AUDIO
    TITLE "0:"
    INDEX 01 01:32:12
  TRACK 56 AUDIO
    TITLE "3:cjc039_3628"
    INDEX 01 01:32:62
  TRACK 57 AUDIO
    TITLE "0:"
    INDEX 01 01:36:52
  TRACK 58 AUDIO
    TITLE "2:cjc039_3629"
    INDEX 01 01:38:30
  TRACK 59 AUDIO
    TITLE "0:"
    INDEX 01 01:39:39
  TRACK 60 AUDIO
    TITLE "3:cjc039_3630"
    INDEX 01 01:40:17
  TRACK 61 AUDIO
    TITLE "0:"
    INDEX 01 01:43:07
  TRACK 62 AUDIO
    TITLE "2:cjc039_3631"
    INDEX 01 01:44:58
  TRACK 63 AUDIO
    TITLE "0:"
    INDEX 01 01:46:25
  TRACK 64 AUDIO
    TITLE "3:cjc039_3632"
    INDEX 01 01:47:03
  TRACK 65 AUDIO
    TITLE "0:"
    INDEX 01 01:50:41
  TRACK 66 AUDIO
    TITLE "2:cjc039_3633"
    INDEX 01 01:52:18
  TRACK 67 AUDIO
    TITLE "0:"
    INDEX 01 01:53:33
  TRACK 68 AUDIO
    TITLE "3:cjc039_3634"
    INDEX 01 01:54:07
  TRACK 69 AUDIO
    TITLE "0:"
    INDEX 01 01:57:43
  TRACK 70 AUDIO
    TITLE "2:cjc039_3635"
    INDEX 01 01:59:20
  TRACK 71 AUDIO
    TITLE "0:"
    INDEX 01 02:00:59
  TRACK 72 AUDIO
    TITLE "3:cjc039_3636"
    INDEX 01 02:01:35
  TRACK 73 AUDIO
    TITLE "0:"
    INDEX 01 02:05:09
  TRACK 74 AUDIO
    TITLE "2:cjc039_3637"
    INDEX 01 02:06:59
  TRACK 75 AUDIO
    TITLE "0:"
    INDEX 01 02:07:61
  TRACK 76 AUDIO
    TITLE "3:cjc039_3638"
    INDEX 01 02:08:37
  TRACK 77 AUDIO
    TITLE "0:"
    INDEX 01 02:12:05
  TRACK 78 AUDIO
    TITLE "2:cjc039_3639"
    INDEX 01 02:13:61
  TRACK 79 AUDIO
    TITLE "0:"
    INDEX 01 02:15:33
  TRACK 80 AUDIO
    TITLE "3:cjc039_3640"
    INDEX 01 02:16:05
  TRACK 81 AUDIO
    TITLE "0:"
    INDEX 01 02:20:46
